<svg width="200" height="200" viewBox="0 0 200 200" xmlns="http://www.w3.org/2000/svg">
  <!-- Rounded Square Background -->
  <rect x="20" y="20" width="160" height="160" rx="30" fill="#E8F4FD" stroke="#2196F3" stroke-width="6"/>
  
  <!-- Document Shape -->
  <path d="M65 45H110L135 70V145C135 150 130 155 125 155H70C65 155 60 150 60 145V55C60 50 65 45 70 45Z" fill="white" stroke="#2196F3" stroke-width="5"/>
  
  <!-- Document Corner Fold -->
  <path d="M110 45V70H135" fill="none" stroke="#2196F3" stroke-width="5" stroke-linejoin="round"/>
  <path d="M110 45L135 70H110Z" fill="#E8F4FD"/>
  
  <!-- Document Lines -->
  <line x1="75" y1="85" x2="120" y2="85" stroke="#2196F3" stroke-width="3" stroke-linecap="round"/>
  <line x1="75" y1="100" x2="110" y2="100" stroke="#2196F3" stroke-width="3" stroke-linecap="round"/>
  <line x1="75" y1="115" x2="115" y2="115" stroke="#2196F3" stroke-width="3" stroke-linecap="round"/>
  <line x1="75" y1="130" x2="100" y2="130" stroke="#2196F3" stroke-width="3" stroke-linecap="round"/>
  
  <!-- Small Checkbox -->
  <rect x="105" y="125" width="12" height="12" rx="2" fill="none" stroke="#2196F3" stroke-width="2"/>
  
  <!-- Wrench Tool -->
  <path d="M115 120L85 90C82 87 82 82 85 79C88 76 93 76 96 79L126 109C129 112 129 117 126 120C123 123 118 123 115 120Z" fill="#2196F3"/>
  <path d="M88 76C82 70 72 70 66 76C60 82 60 92 66 98C68.5 100.5 72 102 75.5 102.2L80 93L89.5 88.5C89.3 84 88.3 80 86.5 76.5C84 72 80 72 76.5 74.5" fill="#2196F3"/>
  <circle cx="73" cy="86" r="5" fill="white"/>
  
  <!-- Plus Badge (Orange/Yellow) -->
  <circle cx="145" cy="55" r="22" fill="#FFA726" stroke="white" stroke-width="4"/>
  <line x1="145" y1="46" x2="145" y2="64" stroke="white" stroke-width="6" stroke-linecap="round"/>
  <line x1="136" y1="55" x2="154" y2="55" stroke="white" stroke-width="6" stroke-linecap="round"/>
</svg>
